<svg width="40" height="40" viewBox="0 0 40 40" fill="none" xmlns="http://www.w3.org/2000/svg">
<path fill-rule="evenodd" clip-rule="evenodd" d="M38.4615 0C37.6119 0 36.9231 0.688793 36.9231 1.53846V7.93786C36.3196 7.32273 35.619 6.66913 34.8211 6.01545C31.5509 3.33646 26.6022 0.625806 20 0.625806C8.91551 0.625806 0 9.41859 0 20.3129C0 31.2105 8.97921 40 20 40C31.0208 40 40 31.2105 40 20.3129C40 19.4632 39.3112 18.7744 38.4615 18.7744C37.6119 18.7744 36.9231 19.4632 36.9231 20.3129C36.9231 29.4618 29.3713 36.9231 20 36.9231C10.6287 36.9231 3.07692 29.4618 3.07692 20.3129C3.07692 11.1608 10.5717 3.70273 20 3.70273C25.7054 3.70273 29.9876 6.03336 32.8712 8.39566C33.8503 9.1977 34.6632 9.99989 35.309 10.7084H28.9126C28.0629 10.7084 27.3742 11.3972 27.3742 12.2468C27.3742 13.0965 28.0629 13.7853 28.9126 13.7853H38.4615C39.3112 13.7853 40 13.0965 40 12.2468V1.53846C40 0.688793 39.3112 0 38.4615 0Z" fill="#363853"/>
</svg>
