<svg width="70" height="70" viewBox="0 0 70 70" fill="none" xmlns="http://www.w3.org/2000/svg">
<g clip-path="url(#clip0_11_170)">
<path d="M28.4458 25.6029C28.4458 25.6029 27.4183 22.3904 31.5654 22.4526H37.823C40.4982 22.3904 42.2014 23.2358 41.6738 25.6029H28.4458Z" fill="#D4D6E3"/>
<path d="M35.0464 22.4435V15.2263" stroke="black" stroke-width="1.5" stroke-miterlimit="10"/>
<path d="M35.0455 15.217C36.2418 15.217 37.2116 14.2847 37.2116 13.1346C37.2116 11.9846 36.2418 11.0522 35.0455 11.0522C33.8492 11.0522 32.8794 11.9846 32.8794 13.1346C32.8794 14.2847 33.8492 15.217 35.0455 15.217Z" fill="black" stroke="black" stroke-width="0.5" stroke-miterlimit="10"/>
<path opacity="0.5" d="M34.5557 0V6.22935H35.0557H35.5557V0L35.0557 0L34.5557 0Z" fill="black" stroke="black" stroke-miterlimit="10" stroke-linecap="round"/>
<path opacity="0.5" d="M39.1196 8.57885L42.9334 4.78784" stroke="black" stroke-width="2" stroke-miterlimit="10" stroke-linecap="round"/>
<path opacity="0.5" d="M30.8069 8.53435L26.9839 4.78784" stroke="black" stroke-width="2" stroke-miterlimit="10" stroke-linecap="round"/>
<path d="M24.6609 25.6203L44.5167 25.5046C45.3479 25.571 46.1555 25.804 46.8873 26.1888C47.6191 26.5735 48.259 27.1013 48.7656 27.7383C49.5986 28.8578 49.9772 30.2314 49.8301 31.6005L19.6992 31.5293C19.7799 29.9732 20.4365 28.4961 21.5506 27.3645C22.4 26.5183 23.4765 25.9147 24.6609 25.6203Z" fill="#A3A2C4"/>
<path d="M19.3007 31.6807C15.0894 33.0434 11.4454 35.6718 8.90678 39.1778C6.36813 42.6838 5.06933 46.8815 5.20213 51.1514C5.33493 55.4213 6.89228 59.537 9.64429 62.8909C12.3963 66.2448 16.1971 68.6592 20.4856 69.7776L48.9225 70.0001C53.3402 68.9713 57.2808 66.569 60.1325 63.1663C62.9841 59.7635 64.5872 55.5507 64.6928 51.1821C64.7983 46.8136 63.4004 42.5338 60.7161 39.0074C58.0318 35.481 54.2114 32.9055 49.8482 31.6807H19.3007Z" fill="#D5D6E1"/>
<path d="M5.9151 43.6408C4.88904 43.3319 3.78154 43.3887 2.79555 43.801C2.13801 44.1221 1.5673 44.586 1.12866 45.156C0.690018 45.726 0.3955 46.3863 0.268448 47.0848C0.17588 49.1849 0.0925681 51.2762 0 53.3764C0.217266 54.4249 0.806156 55.3684 1.66623 56.0461C2.25647 56.4661 2.93586 56.7556 3.65591 56.8941C4.37597 57.0325 5.11894 57.0165 5.83179 56.847C5.34599 54.4111 5.14109 51.9311 5.22084 49.4519C5.2746 47.4991 5.50692 45.5545 5.9151 43.6408Z" fill="#A0A1C1"/>
<path d="M64.0942 56.7585C65.1195 57.0732 66.2292 57.0162 67.2138 56.5983C67.8713 56.2772 68.442 55.8133 68.8807 55.2433C69.3193 54.6733 69.6138 54.013 69.7409 53.3146C69.8242 51.2233 69.9168 49.1231 70.0001 47.0318C69.7897 45.9829 69.2033 45.0382 68.3431 44.3621C67.7539 43.94 67.0749 43.6486 66.3547 43.5086C65.6345 43.3686 64.891 43.3835 64.1775 43.5523C64.6537 45.9925 64.8585 48.4744 64.7885 50.9563C64.7301 52.9059 64.4979 54.8471 64.0942 56.7585Z" fill="#A3A1C4"/>
<path d="M22.873 35.8276C19.5216 36.5443 16.506 38.2949 14.2859 40.8126C12.0659 43.3303 10.7632 46.4769 10.5765 49.7726C10.3898 53.0683 11.3294 56.3323 13.252 59.0669C15.1746 61.8014 17.9747 63.8565 21.2253 64.9187L47.1444 65.1768C50.7221 64.5687 53.9628 62.7687 56.2976 60.0925C58.6324 57.4163 59.9121 54.0351 59.9121 50.5423C59.9121 47.0494 58.6324 43.6682 56.2976 40.992C53.9628 38.3159 50.7221 36.5158 47.1444 35.9077L22.873 35.8276Z" fill="#A4A3C1"/>
<path d="M46.321 37.6608L22.457 63.2635C19.5501 62.3483 17.0389 60.536 15.3134 58.108C13.5879 55.6801 12.7446 52.7723 12.9145 49.8363C13.0844 46.9003 14.258 44.1004 16.253 41.8714C18.248 39.6424 20.9528 38.1091 23.9473 37.5095L45.9322 37.5896C46.0634 37.6047 46.1933 37.6285 46.321 37.6608Z" fill="#343551"/>
<path d="M57.5121 50.5381C57.5019 53.6685 56.3299 56.6926 54.207 59.0663C52.0841 61.4399 49.1497 63.0073 45.9318 63.4863L22.4565 63.2638L46.3206 37.6611C49.458 38.2106 52.2957 39.7998 54.3404 42.1525C56.3852 44.5051 57.5074 47.4723 57.5121 50.5381Z" fill="#25273E"/>
<path d="M25.5207 46.3909H31.5099C31.5501 45.9896 31.5026 45.5846 31.3705 45.2019C31.2383 44.8192 31.0243 44.4674 30.7423 44.1689C30.4604 43.8704 30.1166 43.6319 29.733 43.4687C29.3495 43.3055 28.9347 43.2212 28.5153 43.2212C28.0959 43.2212 27.6811 43.3055 27.2976 43.4687C26.914 43.6319 26.5702 43.8704 26.2883 44.1689C26.0063 44.4674 25.7923 44.8192 25.6601 45.2019C25.528 45.5846 25.4805 45.9896 25.5207 46.3909Z" fill="#D3FD68"/>
<path d="M38.6016 46.5066L44.5907 46.3553C44.6312 45.9466 44.5809 45.5343 44.4433 45.1456C44.3057 44.7569 44.0838 44.4008 43.7923 44.1007C43.5009 43.8006 43.1465 43.5634 42.7526 43.4048C42.3587 43.2461 41.9342 43.1697 41.5073 43.1804C41.0804 43.1912 40.6607 43.289 40.276 43.4673C39.8913 43.6456 39.5504 43.9004 39.2757 44.2148C39.001 44.5292 38.7989 44.896 38.6827 45.2911C38.5665 45.6862 38.5388 46.1005 38.6016 46.5066Z" fill="#D3FD68"/>
<path d="M26.7065 50.4753H43.2485C43.2187 52.4295 42.4651 54.3094 41.123 55.7774C39.7809 57.2454 37.9384 58.2052 35.9263 58.4845C31.3997 58.9651 26.9287 55.4054 26.7065 50.4753Z" fill="#D3FD68"/>
<path d="M19.6992 31.5294C20.088 30.1411 23.3001 29.8029 23.3001 29.8029C31.1684 29.8029 39.1478 29.7228 46.8124 29.8029C46.8124 29.8029 49.8209 30.506 49.8301 31.6361C39.7865 31.6984 29.7429 31.4315 19.6992 31.5294Z" fill="#75759A"/>
</g>
<defs>
<clipPath id="clip0_11_170">
<rect width="70" height="70" fill="white"/>
</clipPath>
</defs>
</svg>
