<svg width="30" height="30" viewBox="0 0 30 30" fill="none" xmlns="http://www.w3.org/2000/svg">
<g clip-path="url(#clip0_283_257)">
<path d="M16.25 7.5H13.75C13.087 7.5 12.4511 7.76339 11.9822 8.23223C11.5134 8.70107 11.25 9.33696 11.25 10V30H18.75V10C18.75 9.33696 18.4866 8.70107 18.0178 8.23223C17.5489 7.76339 16.913 7.5 16.25 7.5V7.5Z" fill="black"/>
<path d="M27.5 0H25C24.337 0 23.7011 0.263392 23.2322 0.732233C22.7634 1.20107 22.5 1.83696 22.5 2.5V30H30V2.5C30 1.83696 29.7366 1.20107 29.2678 0.732233C28.7989 0.263392 28.163 0 27.5 0V0Z" fill="black"/>
<path d="M5 15H2.5C1.83696 15 1.20107 15.2634 0.732233 15.7322C0.263392 16.2011 0 16.837 0 17.5L0 30H7.5V17.5C7.5 16.837 7.23661 16.2011 6.76777 15.7322C6.29893 15.2634 5.66304 15 5 15Z" fill="black"/>
</g>
<defs>
<clipPath id="clip0_283_257">
<rect width="30" height="30" fill="white"/>
</clipPath>
</defs>
</svg>
